# xmcd
#
# Track frame offsets: 
#        150
#        31218
#        46751
#
# Disc length: 1029 seconds
#
# Revision: 0
# Processed by: cddbd v1.5.2PL0 Copyright (c) Steve Scherf et al.
# Submitted via: ExactAudioCopy v0.95b4
#
DISCID=18040303
DTITLE=Ole van Dansk - You can´t fall in love
DYEAR=1900
DGENRE=
TTITLE0=Clubmix
TTITLE1=Radiomix
TTITLE2=Extended Radiomix
EXTD=
EXTT0=
EXTT1=
EXTT2=
PLAYORDER=
